<svg width="25" height="25" viewBox="0 0 25 25" fill="none" xmlns="http://www.w3.org/2000/svg">
<path d="M12.4375 20C12.875 20 13.245 19.8487 13.5475 19.5462C13.85 19.2437 14.0008 18.8742 14 18.4375C13.9992 18.0008 13.8483 17.6308 13.5475 17.3275C13.2467 17.0242 12.8767 16.8733 12.4375 16.875C11.9983 16.8767 11.6287 17.0279 11.3287 17.3287C11.0287 17.6296 10.8775 17.9992 10.875 18.4375C10.8725 18.8758 11.0237 19.2458 11.3287 19.5475C11.6337 19.8492 12.0033 20 12.4375 20ZM12.5 25C10.7708 25 9.14583 24.6717 7.625 24.015C6.10416 23.3583 4.78125 22.4679 3.65625 21.3437C2.53125 20.2196 1.64083 18.8967 0.985001 17.375C0.329168 15.8533 0.000834915 14.2283 1.58228e-06 12.5C-0.000831751 10.7717 0.327501 9.14666 0.985001 7.625C1.6425 6.10333 2.53292 4.78042 3.65625 3.65625C4.77958 2.53208 6.1025 1.64167 7.625 0.985C9.1475 0.328333 10.7725 0 12.5 0C14.2275 0 15.8525 0.328333 17.375 0.985C18.8975 1.64167 20.2204 2.53208 21.3437 3.65625C22.4671 4.78042 23.3579 6.10333 24.0162 7.625C24.6746 9.14666 25.0025 10.7717 25 12.5C24.9975 14.2283 24.6692 15.8533 24.015 17.375C23.3608 18.8967 22.4704 20.2196 21.3437 21.3437C20.2171 22.4679 18.8942 23.3587 17.375 24.0162C15.8558 24.6737 14.2308 25.0017 12.5 25ZM12.5 22.5C15.2917 22.5 17.6562 21.5312 19.5937 19.5937C21.5312 17.6562 22.5 15.2917 22.5 12.5C22.5 9.70833 21.5312 7.34375 19.5937 5.40625C17.6562 3.46875 15.2917 2.5 12.5 2.5C9.70833 2.5 7.34375 3.46875 5.40625 5.40625C3.46875 7.34375 2.5 9.70833 2.5 12.5C2.5 15.2917 3.46875 17.6562 5.40625 19.5937C7.34375 21.5312 9.70833 22.5 12.5 22.5ZM12.625 7.125C13.1458 7.125 13.5992 7.29167 13.985 7.625C14.3708 7.95833 14.5633 8.375 14.5625 8.875C14.5625 9.33333 14.4221 9.73958 14.1412 10.0937C13.8604 10.4479 13.5425 10.7812 13.1875 11.0937C12.7083 11.5104 12.2867 11.9687 11.9225 12.4687C11.5583 12.9687 11.3758 13.5312 11.375 14.1562C11.375 14.4479 11.4846 14.6929 11.7037 14.8912C11.9229 15.0896 12.1779 15.1883 12.4687 15.1875C12.7812 15.1875 13.0471 15.0833 13.2662 14.875C13.4854 14.6667 13.6258 14.4062 13.6875 14.0937C13.7708 13.6562 13.9583 13.2658 14.25 12.9225C14.5417 12.5792 14.8542 12.2508 15.1875 11.9375C15.6667 11.4792 16.0783 10.9792 16.4225 10.4375C16.7667 9.89583 16.9383 9.29166 16.9375 8.625C16.9375 7.5625 16.5054 6.69291 15.6412 6.01625C14.7771 5.33958 13.7717 5.00083 12.625 5C11.8333 5 11.0783 5.16667 10.36 5.5C9.64166 5.83333 9.09458 6.34375 8.71875 7.03125C8.57291 7.28125 8.52625 7.54708 8.57875 7.82875C8.63125 8.11041 8.77166 8.32375 9 8.46875C9.29166 8.63541 9.59375 8.6875 9.90625 8.625C10.2187 8.5625 10.4792 8.38542 10.6875 8.09375C10.9167 7.78125 11.2033 7.54166 11.5475 7.375C11.8917 7.20833 12.2508 7.125 12.625 7.125Z" fill="#1A1A1A"/>
</svg>
